<svg width="359" height="62" viewBox="0 0 359 62" fill="none" xmlns="http://www.w3.org/2000/svg">
<path opacity="0.4" d="M353.801 43.3799C352.934 43.3883 352.085 43.8599 351.35 44.7423C350.614 45.6246 350.019 46.8831 349.633 48.3775L284.468 0.421875H284.383H0.484375V2.22608H284.215L349.295 50.0554C349.184 50.8192 349.124 51.6075 349.118 52.4009C349.118 54.1851 349.392 55.9292 349.907 57.4127C350.421 58.8962 351.153 60.0524 352.009 60.7352C352.864 61.418 353.806 61.5966 354.715 61.2485C355.623 60.9005 356.458 60.0413 357.113 58.7797C357.768 57.5181 358.214 55.9107 358.394 54.1608C358.575 52.4109 358.482 50.5971 358.128 48.9487C357.773 47.3003 357.173 45.8914 356.403 44.9002C355.633 43.909 354.727 43.3799 353.801 43.3799ZM353.801 57.8135C353.245 57.8135 352.702 57.496 352.24 56.9013C351.778 56.3065 351.417 55.4612 351.205 54.4722C350.992 53.4832 350.936 52.3949 351.045 51.3449C351.153 50.295 351.421 49.3306 351.814 48.5736C352.207 47.8166 352.708 47.3011 353.253 47.0923C353.798 46.8834 354.363 46.9906 354.876 47.4003C355.39 47.81 355.829 48.5037 356.137 49.3938C356.446 50.2839 356.611 51.3304 356.611 52.4009C356.611 53.8364 356.315 55.2131 355.788 56.2282C355.261 57.2432 354.546 57.8135 353.801 57.8135Z" fill="#A69A2F"/>
</svg>
